<svg xmlns="http://www.w3.org/2000/svg" width="900" height="463" viewBox="0 0 900 463" role="img" aria-labelledby="title desc">
<title id="title">Variação em 7 dias: Investimentos EA FC: Eredivisie em 21/07 — PC</title>
<desc id="desc">Gráfico gerado a partir da tabela publicada neste artigo.</desc>
<rect width="100%" height="100%" rx="20" fill="#0f172a"/>
<text x="28" y="42" fill="#f8fafc" font-family="system-ui,sans-serif" font-size="23" font-weight="700">Variação em 7 dias</text>
<text x="28" y="70" fill="#94a3b8" font-family="system-ui,sans-serif" font-size="15">Dados do recorte publicado no artigo</text>
<text x="28" y="117" fill="#e2e8f0" font-family="system-ui,sans-serif" font-size="16">Melle Meulensteen</text>
<rect x="285" y="95" width="480" height="28" rx="7" fill="#22c55e"/>
<text x="775" y="116" fill="#f8fafc" font-family="system-ui,sans-serif" font-size="15" font-weight="700">+37.5%</text>
<text x="28" y="175" fill="#e2e8f0" font-family="system-ui,sans-serif" font-size="16">Steven Berghuis</text>
<rect x="285" y="153" width="278" height="28" rx="7" fill="#22c55e"/>
<text x="573" y="174" fill="#f8fafc" font-family="system-ui,sans-serif" font-size="15" font-weight="700">+21.7%</text>
<text x="28" y="233" fill="#e2e8f0" font-family="system-ui,sans-serif" font-size="16">Luciano Valente</text>
<rect x="285" y="211" width="239" height="28" rx="7" fill="#22c55e"/>
<text x="534" y="232" fill="#f8fafc" font-family="system-ui,sans-serif" font-size="15" font-weight="700">+18.7%</text>
<text x="28" y="291" fill="#e2e8f0" font-family="system-ui,sans-serif" font-size="16">Troy Parrott</text>
<rect x="285" y="269" width="188" height="28" rx="7" fill="#22c55e"/>
<text x="483" y="290" fill="#f8fafc" font-family="system-ui,sans-serif" font-size="15" font-weight="700">+14.7%</text>
<text x="28" y="349" fill="#e2e8f0" font-family="system-ui,sans-serif" font-size="16">Mauro Júnior</text>
<rect x="285" y="327" width="120" height="28" rx="7" fill="#22c55e"/>
<text x="415" y="348" fill="#f8fafc" font-family="system-ui,sans-serif" font-size="15" font-weight="700">+9.4%</text>
<text x="28" y="407" fill="#e2e8f0" font-family="system-ui,sans-serif" font-size="16">Mohamed Ihattaren</text>
<rect x="285" y="385" width="118" height="28" rx="7" fill="#22c55e"/>
<text x="413" y="406" fill="#f8fafc" font-family="system-ui,sans-serif" font-size="15" font-weight="700">+9.2%</text>
</svg>
