<svg xmlns="http://www.w3.org/2000/svg" width="900" height="463" viewBox="0 0 900 463" role="img" aria-labelledby="title desc">
<title id="title">Variação em 24h: Mercado EA FC em 24/07: Eredivisie — PC</title>
<desc id="desc">Gráfico gerado a partir da tabela publicada neste artigo.</desc>
<rect width="100%" height="100%" rx="20" fill="#0f172a"/>
<text x="28" y="42" fill="#f8fafc" font-family="system-ui,sans-serif" font-size="23" font-weight="700">Variação em 24h</text>
<text x="28" y="70" fill="#94a3b8" font-family="system-ui,sans-serif" font-size="15">Dados do recorte publicado no artigo</text>
<text x="28" y="117" fill="#e2e8f0" font-family="system-ui,sans-serif" font-size="16">Paul Wanner</text>
<rect x="285" y="95" width="480" height="28" rx="7" fill="#22c55e"/>
<text x="775" y="116" fill="#f8fafc" font-family="system-ui,sans-serif" font-size="15" font-weight="700">+28.4%</text>
<text x="28" y="175" fill="#e2e8f0" font-family="system-ui,sans-serif" font-size="16">Joël Drommel</text>
<rect x="285" y="153" width="411" height="28" rx="7" fill="#22c55e"/>
<text x="706" y="174" fill="#f8fafc" font-family="system-ui,sans-serif" font-size="15" font-weight="700">+24.3%</text>
<text x="28" y="233" fill="#e2e8f0" font-family="system-ui,sans-serif" font-size="16">Dennis Man</text>
<rect x="285" y="211" width="338" height="28" rx="7" fill="#22c55e"/>
<text x="633" y="232" fill="#f8fafc" font-family="system-ui,sans-serif" font-size="15" font-weight="700">+20.0%</text>
<text x="28" y="291" fill="#e2e8f0" font-family="system-ui,sans-serif" font-size="16">Guus Til</text>
<rect x="285" y="269" width="306" height="28" rx="7" fill="#22c55e"/>
<text x="601" y="290" fill="#f8fafc" font-family="system-ui,sans-serif" font-size="15" font-weight="700">+18.1%</text>
<text x="28" y="349" fill="#e2e8f0" font-family="system-ui,sans-serif" font-size="16">Noah Naujoks</text>
<rect x="285" y="327" width="216" height="28" rx="7" fill="#22c55e"/>
<text x="511" y="348" fill="#f8fafc" font-family="system-ui,sans-serif" font-size="15" font-weight="700">+12.8%</text>
<text x="28" y="407" fill="#e2e8f0" font-family="system-ui,sans-serif" font-size="16">Ayase Ueda</text>
<rect x="285" y="385" width="177" height="28" rx="7" fill="#22c55e"/>
<text x="472" y="406" fill="#f8fafc" font-family="system-ui,sans-serif" font-size="15" font-weight="700">+10.5%</text>
</svg>
