<svg xmlns="http://www.w3.org/2000/svg" width="900" height="463" viewBox="0 0 900 463" role="img" aria-labelledby="title desc">
<title id="title">Variação em 24h: Mercado EA FC em 18/07: Eredivisie — PC</title>
<desc id="desc">Gráfico gerado a partir da tabela publicada neste artigo.</desc>
<rect width="100%" height="100%" rx="20" fill="#0f172a"/>
<text x="28" y="42" fill="#f8fafc" font-family="system-ui,sans-serif" font-size="23" font-weight="700">Variação em 24h</text>
<text x="28" y="70" fill="#94a3b8" font-family="system-ui,sans-serif" font-size="15">Dados do recorte publicado no artigo</text>
<text x="28" y="117" fill="#e2e8f0" font-family="system-ui,sans-serif" font-size="16">Couhaib Driouech</text>
<rect x="285" y="95" width="480" height="28" rx="7" fill="#22c55e"/>
<text x="775" y="116" fill="#f8fafc" font-family="system-ui,sans-serif" font-size="15" font-weight="700">+37.1%</text>
<text x="28" y="175" fill="#e2e8f0" font-family="system-ui,sans-serif" font-size="16">Dennis Man</text>
<rect x="285" y="153" width="351" height="28" rx="7" fill="#22c55e"/>
<text x="646" y="174" fill="#f8fafc" font-family="system-ui,sans-serif" font-size="15" font-weight="700">+27.1%</text>
<text x="28" y="233" fill="#e2e8f0" font-family="system-ui,sans-serif" font-size="16">Troy Parrott</text>
<rect x="285" y="211" width="281" height="28" rx="7" fill="#22c55e"/>
<text x="576" y="232" fill="#f8fafc" font-family="system-ui,sans-serif" font-size="15" font-weight="700">+21.7%</text>
<text x="28" y="291" fill="#e2e8f0" font-family="system-ui,sans-serif" font-size="16">Josip Šutalo</text>
<rect x="285" y="269" width="125" height="28" rx="7" fill="#22c55e"/>
<text x="420" y="290" fill="#f8fafc" font-family="system-ui,sans-serif" font-size="15" font-weight="700">+9.7%</text>
<text x="28" y="349" fill="#e2e8f0" font-family="system-ui,sans-serif" font-size="16">Kento Shiogai</text>
<rect x="285" y="327" width="124" height="28" rx="7" fill="#22c55e"/>
<text x="419" y="348" fill="#f8fafc" font-family="system-ui,sans-serif" font-size="15" font-weight="700">+9.6%</text>
<text x="28" y="407" fill="#e2e8f0" font-family="system-ui,sans-serif" font-size="16">Youri Baas</text>
<rect x="285" y="385" width="72" height="28" rx="7" fill="#22c55e"/>
<text x="367" y="406" fill="#f8fafc" font-family="system-ui,sans-serif" font-size="15" font-weight="700">+5.6%</text>
</svg>
