<svg xmlns="http://www.w3.org/2000/svg" width="900" height="463" viewBox="0 0 900 463" role="img" aria-labelledby="title desc">
<title id="title">Variação em 24h: Eredivisie no EA FC em 19/06: altas e baixas — PS</title>
<desc id="desc">Gráfico gerado a partir da tabela publicada neste artigo.</desc>
<rect width="100%" height="100%" rx="20" fill="#0f172a"/>
<text x="28" y="42" fill="#f8fafc" font-family="system-ui,sans-serif" font-size="23" font-weight="700">Variação em 24h</text>
<text x="28" y="70" fill="#94a3b8" font-family="system-ui,sans-serif" font-size="15">Dados do recorte publicado no artigo</text>
<text x="28" y="117" fill="#e2e8f0" font-family="system-ui,sans-serif" font-size="16">Can Bozdoğan</text>
<rect x="285" y="95" width="480" height="28" rx="7" fill="#22c55e"/>
<text x="775" y="116" fill="#f8fafc" font-family="system-ui,sans-serif" font-size="15" font-weight="700">+11.1%</text>
<text x="28" y="175" fill="#e2e8f0" font-family="system-ui,sans-serif" font-size="16">Lewis Holtby</text>
<rect x="285" y="153" width="381" height="28" rx="7" fill="#22c55e"/>
<text x="676" y="174" fill="#f8fafc" font-family="system-ui,sans-serif" font-size="15" font-weight="700">+8.8%</text>
<text x="28" y="233" fill="#e2e8f0" font-family="system-ui,sans-serif" font-size="16">Troy Parrott</text>
<rect x="285" y="211" width="303" height="28" rx="7" fill="#22c55e"/>
<text x="598" y="232" fill="#f8fafc" font-family="system-ui,sans-serif" font-size="15" font-weight="700">+7.0%</text>
<text x="28" y="291" fill="#e2e8f0" font-family="system-ui,sans-serif" font-size="16">Jorthy Mokio</text>
<rect x="285" y="269" width="264" height="28" rx="7" fill="#22c55e"/>
<text x="559" y="290" fill="#f8fafc" font-family="system-ui,sans-serif" font-size="15" font-weight="700">+6.1%</text>
<text x="28" y="349" fill="#e2e8f0" font-family="system-ui,sans-serif" font-size="16">Jordan Ayew</text>
<rect x="285" y="327" width="190" height="28" rx="7" fill="#22c55e"/>
<text x="485" y="348" fill="#f8fafc" font-family="system-ui,sans-serif" font-size="15" font-weight="700">+4.4%</text>
<text x="28" y="407" fill="#e2e8f0" font-family="system-ui,sans-serif" font-size="16">Ayase Ueda</text>
<rect x="285" y="385" width="143" height="28" rx="7" fill="#22c55e"/>
<text x="438" y="406" fill="#f8fafc" font-family="system-ui,sans-serif" font-size="15" font-weight="700">+3.3%</text>
</svg>
