<svg xmlns="http://www.w3.org/2000/svg" width="900" height="463" viewBox="0 0 900 463" role="img" aria-labelledby="title desc">
<title id="title">Variação em 24h: Mercado EA FC em 24/07: Eredivisie — PC</title>
<desc id="desc">Gráfico gerado a partir da tabela publicada neste artigo.</desc>
<rect width="100%" height="100%" rx="20" fill="#0f172a"/>
<text x="28" y="42" fill="#f8fafc" font-family="system-ui,sans-serif" font-size="23" font-weight="700">Variação em 24h</text>
<text x="28" y="70" fill="#94a3b8" font-family="system-ui,sans-serif" font-size="15">Dados do recorte publicado no artigo</text>
<text x="28" y="117" fill="#e2e8f0" font-family="system-ui,sans-serif" font-size="16">Lewis Holtby</text>
<rect x="285" y="95" width="480" height="28" rx="7" fill="#22c55e"/>
<text x="775" y="116" fill="#f8fafc" font-family="system-ui,sans-serif" font-size="15" font-weight="700">+42.9%</text>
<text x="28" y="175" fill="#e2e8f0" font-family="system-ui,sans-serif" font-size="16">Victor Edvardsen</text>
<rect x="285" y="153" width="388" height="28" rx="7" fill="#22c55e"/>
<text x="683" y="174" fill="#f8fafc" font-family="system-ui,sans-serif" font-size="15" font-weight="700">+34.7%</text>
<text x="28" y="233" fill="#e2e8f0" font-family="system-ui,sans-serif" font-size="16">Ko Itakura</text>
<rect x="285" y="211" width="354" height="28" rx="7" fill="#22c55e"/>
<text x="649" y="232" fill="#f8fafc" font-family="system-ui,sans-serif" font-size="15" font-weight="700">+31.6%</text>
<text x="28" y="291" fill="#e2e8f0" font-family="system-ui,sans-serif" font-size="16">Youri Baas</text>
<rect x="285" y="269" width="316" height="28" rx="7" fill="#22c55e"/>
<text x="611" y="290" fill="#f8fafc" font-family="system-ui,sans-serif" font-size="15" font-weight="700">+28.2%</text>
<text x="28" y="349" fill="#e2e8f0" font-family="system-ui,sans-serif" font-size="16">Joël Drommel</text>
<rect x="285" y="327" width="272" height="28" rx="7" fill="#22c55e"/>
<text x="567" y="348" fill="#f8fafc" font-family="system-ui,sans-serif" font-size="15" font-weight="700">+24.3%</text>
<text x="28" y="407" fill="#e2e8f0" font-family="system-ui,sans-serif" font-size="16">Mohamed Ihattaren</text>
<rect x="285" y="385" width="252" height="28" rx="7" fill="#22c55e"/>
<text x="547" y="406" fill="#f8fafc" font-family="system-ui,sans-serif" font-size="15" font-weight="700">+22.5%</text>
</svg>
